<?xml version="1.0" encoding="UTF-8"?>
<svg version="1.1" xmlns="http://www.w3.org/2000/svg" width="1279" height="1280">
<path d="M0 0 C2.45421402 1.04374619 4.91393392 2.0739965 7.37353516 3.10498047 C17.50436937 7.37364637 27.39332549 11.88226814 37.16650391 16.92138672 C39.7878463 18.24123295 42.414905 19.5495406 45.04150391 20.85888672 C46.39830692 21.53850998 47.7550777 22.21819759 49.11181641 22.89794922 C51.74715897 24.21625127 54.38770192 25.52303405 57.03369141 26.81982422 C67.08815157 31.76524369 76.90007953 37.10388559 86.69018555 42.55175781 C89.28396796 43.98635501 91.88858341 45.39982725 94.49462891 46.81201172 C100.58543423 50.13000576 106.59933945 53.57542752 112.60400391 57.04638672 C113.73781494 57.7016333 114.87162598 58.35687988 116.03979492 59.03198242 C159.35224561 84.10412604 201.33354698 111.6024305 241.71728516 141.16357422 C245.46511104 143.8534014 249.30231162 146.40250582 253.16650391 148.92138672 C253.28123047 148.33099609 253.39595703 147.74060547 253.51416016 147.13232422 C255.42728462 140.64832154 261.52895508 136.47499862 267.17041016 133.33154297 C301.37599794 117.23217245 356.34586466 117.70940856 392.10400391 128.75732422 C399.70156976 131.6451745 406.82997586 134.58425966 412.16650391 140.92138672 C412.88837891 141.62263672 413.61025391 142.32388672 414.35400391 143.04638672 C416.16650391 144.92138672 416.16650391 144.92138672 418.16650391 147.92138672 C422.98628426 144.74609117 427.70814591 141.44668986 432.41650391 138.10888672 C433.93724554 137.03323624 435.45807833 135.9577146 436.97900391 134.88232422 C437.70474609 134.36895508 438.43048828 133.85558594 439.17822266 133.32666016 C443.16378483 130.50975251 447.16188901 127.71111844 451.16650391 124.92138672 C452.14490234 124.23818359 453.12330078 123.55498047 454.13134766 122.85107422 C461.77782833 117.53097736 469.50067771 112.33575768 477.26367188 107.1875 C479.14305173 105.93699141 481.01690605 104.67862768 482.88916016 103.41748047 C490.65825588 98.1917779 498.52090648 93.14730898 506.47900391 88.21435547 C509.47811204 86.35512134 512.45153298 84.45971952 515.41650391 82.54638672 C523.0751035 77.65595566 530.90839983 73.04785322 538.70996094 68.390625 C540.96810316 67.04004858 543.22259338 65.68368323 545.47509766 64.32373047 C546.13477539 63.92589355 546.79445313 63.52805664 547.47412109 63.11816406 C549.21964128 62.06495799 550.96458128 61.0107905 552.70947266 59.95654297 C556.00296432 57.99543367 559.35015771 56.13802855 562.70532227 54.28491211 C567.27123049 51.75534189 571.81049716 49.17840429 576.35400391 46.60888672 C577.87682983 45.74904175 577.87682983 45.74904175 579.43041992 44.87182617 C583.70171293 42.45797219 587.97213071 40.04399081 592.21337891 37.57763672 C600.69550731 32.65252991 609.35131821 28.2075386 618.16650391 23.92138672 C619.51035156 23.26396484 619.51035156 23.26396484 620.88134766 22.59326172 C644.55566331 11.02621353 668.48086362 0.15824556 693.16650391 -9.07861328 C694.16891113 -9.45614746 695.17131836 -9.83368164 696.20410156 -10.22265625 C787.38871195 -44.4007634 787.38871195 -44.4007634 821.16650391 -31.07861328 C824.2858016 -29.09694181 826.70272541 -26.82109976 829.16650391 -24.07861328 C829.67439453 -23.52689453 830.18228516 -22.97517578 830.70556641 -22.40673828 C860.92002452 14.10913088 862.02130961 77.24729435 864.26416016 122.30029297 C864.30650032 123.14040798 864.34884048 123.98052299 864.39246368 124.84609604 C865.40329357 145.41044098 865.48219958 165.96716032 865.42445374 186.5521965 C865.41635164 189.60373685 865.41141861 192.65526973 865.40710449 195.70681763 C865.35549735 227.47608957 865.05483435 259.19916264 863.16650391 290.92138672 C863.10098328 292.0241394 863.03546265 293.12689209 862.96795654 294.26306152 C853.13541871 457.03177486 853.13541871 457.03177486 814.16650391 493.85888672 C803.07838369 503.35330158 791.41128024 504.86584344 777.16650391 503.92138672 C747.26321466 501.09414234 717.27733911 491.23789993 689.00537109 481.54003906 C686.30504115 480.63156375 683.58160027 479.8063299 680.85400391 478.98388672 C667.69953959 474.97459155 654.68542074 470.63021197 641.90600586 465.54711914 C636.37389381 463.35710855 630.7918323 461.3583209 625.16650391 459.42138672 C617.89955197 456.91689744 610.72288319 454.24212684 603.57324219 451.42114258 C596.82440199 448.76423235 590.01454438 446.31049409 583.16650391 443.92138672 C584.03275391 444.53626953 584.03275391 444.53626953 584.91650391 445.16357422 C585.65900391 445.70240234 586.40150391 446.24123047 587.16650391 446.79638672 C587.90900391 447.33005859 588.65150391 447.86373047 589.41650391 448.41357422 C589.99400391 448.91115234 590.57150391 449.40873047 591.16650391 449.92138672 C591.16650391 450.58138672 591.16650391 451.24138672 591.16650391 451.92138672 C591.69759766 452.13408203 592.22869141 452.34677734 592.77587891 452.56591797 C596.08793827 454.44383398 598.67599768 457.00166586 601.41650391 459.60888672 C602.57719165 460.69825001 603.73864781 461.78679516 604.90087891 462.87451172 C605.46097656 463.39980469 606.02107422 463.92509766 606.59814453 464.46630859 C608.58342065 466.30818992 610.61599043 468.09012318 612.66650391 469.85888672 C615.63717454 472.43934214 618.50935909 475.01513458 621.16650391 477.92138672 C621.16650391 478.58138672 621.16650391 479.24138672 621.16650391 479.92138672 C621.72337891 480.14826172 622.28025391 480.37513672 622.85400391 480.60888672 C625.82809978 482.29688708 627.88659256 484.38815189 630.16650391 486.92138672 C630.16650391 487.58138672 630.16650391 488.24138672 630.16650391 488.92138672 C630.80587891 489.18951172 631.44525391 489.45763672 632.10400391 489.73388672 C634.16650391 490.92138672 634.16650391 490.92138672 635.16650391 493.92138672 C635.82650391 494.25138672 636.48650391 494.58138672 637.16650391 494.92138672 C637.82650391 495.25138672 638.48650391 495.58138672 639.16650391 495.92138672 C639.49650391 496.91138672 639.82650391 497.90138672 640.16650391 498.92138672 C641.15650391 499.25138672 642.14650391 499.58138672 643.16650391 499.92138672 C647.16650391 504.37852958 647.16650391 504.37852958 647.16650391 506.92138672 C648.15650391 507.25138672 649.14650391 507.58138672 650.16650391 507.92138672 C655.16650391 513.386503 655.16650391 513.386503 655.16650391 515.92138672 C655.77107422 516.18048828 656.37564453 516.43958984 656.99853516 516.70654297 C659.37134175 518.03616973 660.31867067 519.14118315 661.85400391 521.35888672 C664.19354522 524.623769 666.64310391 527.72267042 669.22900391 530.79638672 C675.07062503 537.88132585 680.34312807 545.37000639 685.67431641 552.84179688 C686.98157436 554.66365932 688.30190258 556.47405336 689.63525391 558.27685547 C692.68582541 562.40309491 695.62637733 566.44848025 698.07275391 570.97216797 C699.51158129 573.53636392 701.09687638 575.99757099 702.66650391 578.48388672 C721.39514122 608.63439285 736.30506275 641.49091095 745.16650391 675.92138672 C745.47080322 677.07550049 745.47080322 677.07550049 745.78125 678.25292969 C755.57588791 715.75345658 758.82077859 755.30337273 755.16650391 793.92138672 C755.11365234 794.75669922 755.06080078 795.59201172 755.00634766 796.45263672 C754.0683901 803.74492649 748.89807056 809.35352762 744.58056641 815.02929688 C743.12982382 816.9704666 741.7360612 818.94253762 740.35400391 820.93310547 C739.90347656 821.57997314 739.45294922 822.22684082 738.98876953 822.89331055 C738.1193595 824.14461247 737.25336747 825.39829741 736.39111328 826.65454102 C735.36543293 828.1126942 734.27186964 829.52267393 733.16650391 830.92138672 C732.50650391 830.92138672 731.84650391 830.92138672 731.16650391 830.92138672 C730.93962891 831.62263672 730.71275391 832.32388672 730.47900391 833.04638672 C728.89408209 836.51812023 726.67508646 839.09890841 724.16650391 841.92138672 C719.95497594 846.77452004 715.96047383 851.71547972 712.07641602 856.83569336 C708.17941384 861.95074661 704.12506991 866.92997363 700.05371094 871.90673828 C696.53039829 876.22070337 693.07908945 880.58208256 689.66650391 884.98388672 C685.24960834 890.66356244 680.60283745 896.11225659 675.86401367 901.52490234 C672.71141425 905.12787311 669.6198632 908.76450871 666.60400391 912.48388672 C659.79084332 920.88470123 652.75686131 929.10705397 645.47900391 937.10888672 C642.46835912 940.42221752 639.60085212 943.81080601 636.79150391 947.29638672 C633.1068943 951.85400487 629.23245898 956.16545862 625.24194336 960.45141602 C622.35088634 963.57516176 619.62559096 966.77670759 616.97900391 970.10888672 C612.29385286 975.93779074 607.17624978 981.32621495 602.01342773 986.73266602 C598.17047266 990.76139472 594.43533493 994.85453839 590.78808594 999.0612793 C588.46359418 1001.72769042 586.07236621 1004.32849625 583.66650391 1006.92138672 C582.90901855 1007.73978027 582.90901855 1007.73978027 582.13623047 1008.57470703 C576.86542818 1014.26103649 571.56473789 1019.91941093 566.25366211 1025.56811523 C563.72637595 1028.25744492 561.20461202 1030.95168915 558.68969727 1033.65258789 C548.27257122 1044.81565452 537.62452421 1055.74556409 526.86254883 1066.57543945 C524.91349825 1068.53807226 522.97208868 1070.507854 521.03637695 1072.48364258 C518.2044191 1075.37410263 515.35250545 1078.24406318 512.49853516 1081.11279297 C511.20167534 1082.44365685 511.20167534 1082.44365685 509.87861633 1083.80140686 C509.06974472 1084.60742844 508.26087311 1085.41345001 507.42749023 1086.24389648 C506.72296219 1086.95651138 506.01843414 1087.66912628 505.29255676 1088.40333557 C502.6799004 1090.26883293 501.31262056 1090.36748903 498.16650391 1089.92138672 C495.82983398 1088.19995117 495.82983398 1088.19995117 493.43603516 1085.78466797 C492.55512207 1084.90335205 491.67420898 1084.02203613 490.76660156 1083.11401367 C489.83647709 1082.15486774 488.90729434 1081.19480779 487.97900391 1080.23388672 C487.02653132 1079.26391758 486.0738942 1078.29410998 485.12109375 1077.32446289 C478.53329794 1070.56844179 472.54338074 1063.67586832 467.16650391 1055.92138672 C466.54130859 1055.05642578 465.91611328 1054.19146484 465.27197266 1053.30029297 C460.99521397 1047.32773891 457.05387998 1041.15208761 453.16650391 1034.92138672 C452.46267578 1033.84244141 452.46267578 1033.84244141 451.74462891 1032.74169922 C448.02627754 1026.87171756 445.03327169 1020.68241325 442.04150391 1014.42138672 C441.41151489 1013.10388428 441.41151489 1013.10388428 440.76879883 1011.75976562 C436.49564481 1002.69652337 432.9252633 993.45402226 429.66650391 983.98388672 C427.84924577 978.73049874 426.02260794 973.49074486 424.04150391 968.29638672 C418.49319184 953.12782539 415.24843499 937.1783404 412.35913086 921.33007812 C411.69877794 917.70895209 411.00075591 914.10257442 410.22900391 910.50341797 C407.79090168 898.87674803 406.27258093 887.22049088 404.97900391 875.42138672 C404.89441925 874.65161499 404.80983459 873.88184326 404.72268677 873.08874512 C404.17248791 868.0359947 403.63517766 862.98241549 403.16650391 857.92138672 C403.07841461 857.02672699 402.99032532 856.13206726 402.89956665 855.21029663 C401.99834016 845.08879108 401.98399892 834.98829433 401.96337891 824.83544922 C401.96055153 823.88210064 401.95772415 822.92875206 401.9548111 821.94651413 C401.93989372 816.88572677 401.93062131 811.82496728 401.92626953 806.76416016 C401.92191428 802.65111273 401.90812714 798.53827854 401.88525391 794.42529297 C401.75421631 770.38280947 402.1349762 746.80003612 405.16650391 722.92138672 C405.46606174 720.50325406 405.76497234 718.08504112 406.06323242 715.66674805 C406.27305 713.96847115 406.27305 713.96847115 406.48710632 712.23588562 C410.61797526 678.43663321 408.7763782 644.61308199 401.00366211 611.50927734 C400.41333362 608.97924891 399.84166623 606.44959767 399.28833008 603.91162109 C396.9603455 593.39514353 393.79978257 583.32624059 390.22900391 573.17138672 C389.71070983 571.67293625 389.19313041 570.17423839 388.67626953 568.67529297 C384.04630864 555.30493417 378.91629514 542.17192989 373.47900391 529.10888672 C372.95102209 527.83648792 372.4231929 526.56402579 371.89550781 525.29150391 C369.44454286 519.38421465 366.98404947 513.48094817 364.51416016 507.58154297 C336.75426141 441.27104684 336.75426141 441.27104684 336.16650391 410.92138672 C335.50650391 410.92138672 334.84650391 410.92138672 334.16650391 410.92138672 C334.08867676 411.92649292 334.08867676 411.92649292 334.00927734 412.9519043 C332.67111541 429.01404677 329.63042359 444.74707859 324.16650391 459.92138672 C323.8398877 460.83178711 323.51327148 461.7421875 323.17675781 462.68017578 C319.0300462 474.14757908 314.6508954 485.47068609 309.65087891 496.59326172 C308.06457867 500.14991383 306.6155728 503.74221538 305.19384766 507.36669922 C303.9037261 510.57483419 302.53559848 513.74617986 301.16650391 516.92138672 C299.13879986 521.63072936 297.15222717 526.34725842 295.27905273 531.12011719 C294.49171434 533.10254438 293.6892471 535.0789941 292.8762207 537.05102539 C288.80512843 546.99915224 285.32668287 557.08517258 281.97900391 567.29638672 C281.45404518 568.88637313 280.92865603 570.4762175 280.40283203 572.06591797 C279.4107951 575.06669411 278.42170384 578.06841176 277.43530273 581.07104492 C276.44277472 584.08968965 275.43390074 587.1024263 274.41650391 590.11279297 C270.74595649 601.13373446 268.5665186 612.53594119 266.38540649 623.92550659 C266.11860787 625.31783998 265.84945739 626.70972518 265.57772827 628.10110474 C262.66974338 643.06384455 261.97976245 657.81496355 261.98120117 673.02368164 C261.97902161 675.58806147 261.96080569 678.15200464 261.94189453 680.71630859 C261.90256167 692.24083723 262.72248624 703.49184584 264.16650391 714.92138672 C264.30290283 716.01926514 264.43930176 717.11714355 264.57983398 718.24829102 C264.82137279 720.1672984 265.06401289 722.08616755 265.30786133 724.00488281 C271.72640853 776.20091062 271.29043459 830.82764358 264.16650391 882.92138672 C264.01955078 884.02401855 263.87259766 885.12665039 263.72119141 886.26269531 C259.1728439 920.01393925 252.51105616 953.95004738 240.01855469 985.74365234 C239.09462107 988.10511018 238.19144603 990.47404861 237.28759766 992.84326172 C233.72262731 1002.08221949 229.84665127 1010.9105275 225.01806641 1019.55810547 C223.35719803 1022.5749993 221.87512945 1025.61618124 220.41650391 1028.73388672 C211.73379106 1046.24087838 199.03036972 1062.3580405 185.57958984 1076.43652344 C184.11805732 1077.97229414 182.67809904 1079.52677728 181.23681641 1081.08154297 C180.2772022 1082.09191601 179.31630729 1083.10107458 178.35400391 1084.10888672 C177.50193359 1085.00994141 176.64986328 1085.91099609 175.77197266 1086.83935547 C172.66513931 1089.32202739 171.13183763 1089.8496638 167.16650391 1089.92138672 C164.88263076 1088.32026291 163.25981116 1086.91463124 161.36401367 1084.92944336 C160.81842804 1084.38648621 160.27284241 1083.84352905 159.71072388 1083.28411865 C157.9092326 1081.48284919 156.13393104 1079.65790279 154.35791016 1077.83154297 C153.10676518 1076.56987092 151.85413222 1075.30967286 150.6000824 1074.05088806 C147.29735198 1070.727091 144.0165757 1067.38239405 140.73950195 1064.0333252 C138.07849755 1061.320781 135.40287831 1058.6229292 132.72618198 1055.92588139 C110.50395482 1033.5334851 110.50395482 1033.5334851 104.47776794 1026.44541931 C102.65065727 1024.32183769 100.67626059 1022.37115067 98.66650391 1020.42138672 C95.38547023 1017.17882412 92.31190394 1013.8509165 89.31103516 1010.35107422 C86.33202154 1006.97594404 83.24704127 1003.70373579 80.16650391 1000.42138672 C75.97815259 995.95428475 71.81647652 991.48177144 67.83056641 986.83154297 C64.92438459 983.49557371 61.89723088 980.26704552 58.88916016 977.02294922 C57.16650391 974.92138672 57.16650391 974.92138672 57.16650391 972.92138672 C56.50650391 972.92138672 55.84650391 972.92138672 55.16650391 972.92138672 C53.81553017 971.40987126 52.53723046 969.83325359 51.29150391 968.23388672 C47.74197721 963.7884184 44.0608781 959.5664717 40.16650391 955.42138672 C35.66606926 950.61676325 31.43540519 945.66969444 27.31103516 940.53466797 C25.16775435 937.92291049 22.94270061 935.4177337 20.66650391 932.92138672 C16.84968318 928.72946464 13.2599566 924.39664595 9.69775391 919.98779297 C6.14511823 915.68405994 2.46846347 911.49095347 -1.22900391 907.3112793 C-10.83349609 896.3593837 -10.83349609 896.3593837 -10.83349609 892.92138672 C-11.40970703 892.69193359 -11.98591797 892.46248047 -12.57958984 892.22607422 C-15.41685245 890.5837073 -16.89992247 888.63859023 -18.89599609 886.04638672 C-19.90339844 884.75087891 -19.90339844 884.75087891 -20.93115234 883.42919922 C-21.55892578 882.60162109 -22.18669922 881.77404297 -22.83349609 880.92138672 C-23.40970703 880.19693359 -23.98591797 879.47248047 -24.57958984 878.72607422 C-25.83349609 876.92138672 -25.83349609 876.92138672 -25.83349609 874.92138672 C-26.49349609 874.92138672 -27.15349609 874.92138672 -27.83349609 874.92138672 C-29.53977653 872.93684191 -31.13123498 870.94289839 -32.70849609 868.85888672 C-33.703826 867.56663136 -34.69994667 866.27498475 -35.69677734 864.98388672 C-36.21320801 864.31228516 -36.72963867 863.64068359 -37.26171875 862.94873047 C-39.76555727 859.71917547 -42.33236682 856.54102267 -44.89599609 853.35888672 C-49.47106333 847.65915219 -53.96730236 841.90524886 -58.40380859 836.09716797 C-60.0366981 833.96286063 -61.67500207 831.8347274 -63.32568359 829.71435547 C-67.74799194 824.02496675 -72.07437952 818.27980783 -76.27099609 812.42138672 C-76.68414062 811.84590088 -77.09728516 811.27041504 -77.52294922 810.67749023 C-78.64206594 809.10309648 -79.73849826 807.51264963 -80.83349609 805.92138672 C-81.34831543 805.19894775 -81.86313477 804.47650879 -82.39355469 803.73217773 C-84.21809759 800.17063783 -84.63612417 796.7799014 -85.00146484 792.85498047 C-85.12052437 791.67481606 -85.12052437 791.67481606 -85.24198914 790.47080994 C-86.09126114 781.317031 -86.1843823 772.17048278 -86.14599609 762.98388672 C-86.14450562 762.09397034 -86.14301514 761.20405396 -86.14147949 760.28717041 C-86.0956815 744.9861979 -85.16016981 730.06338922 -82.83349609 714.92138672 C-82.68895996 713.9362207 -82.54442383 712.95105469 -82.39550781 711.93603516 C-77.53482913 679.30543251 -67.14559385 648.03392677 -53.83349609 617.92138672 C-53.47900391 617.11459473 -53.12451172 616.30780273 -52.75927734 615.4765625 C-48.72338928 606.36682092 -44.17324605 597.75030815 -38.91162109 589.28857422 C-37.47762109 586.96506293 -36.09616666 584.64796376 -34.75537109 582.27294922 C-33.20314079 579.56601101 -31.59756453 576.99079075 -29.83349609 574.42138672 C-27.71000219 571.28115757 -25.79634523 568.09562283 -23.94677734 564.78466797 C-21.4877346 560.66900695 -18.62796011 556.81306359 -15.83349609 552.92138672 C-15.21345703 552.05384766 -14.59341797 551.18630859 -13.95458984 550.29248047 C-3.39111894 535.63166328 7.84084379 521.66906444 20.00244141 508.30419922 C21.43577055 506.72598482 22.8578717 505.13749387 24.26806641 503.53857422 C30.15262543 496.88367292 36.378307 490.61706291 42.69458008 484.37670898 C45.52702863 481.57620711 48.34948919 478.76787291 51.11572266 475.90185547 C51.68935547 475.31017578 52.26298828 474.71849609 52.85400391 474.10888672 C53.43537109 473.50431641 54.01673828 472.89974609 54.61572266 472.27685547 C56.16650391 470.92138672 56.16650391 470.92138672 58.16650391 470.92138672 C58.46234375 470.1228125 58.46234375 470.1228125 58.76416016 469.30810547 C60.80687237 465.83151171 63.63343613 463.42741693 66.60400391 460.73388672 C67.2242041 460.16452393 67.8444043 459.59516113 68.48339844 459.00854492 C73.874826 454.09851948 79.44333664 449.44152087 85.16650391 444.92138672 C79.14437417 446.89410739 73.17213757 448.97250903 67.22900391 451.17138672 C66.40907959 451.47367188 65.58915527 451.77595703 64.74438477 452.08740234 C59.21378273 454.13612694 53.71647657 456.26026417 48.22900391 458.42138672 C39.45935553 461.86650262 30.5879119 464.98084279 21.68115234 468.05078125 C19.21734498 468.90378485 16.75769678 469.76772164 14.29931641 470.63623047 C-105.98382829 513.12178298 -105.98382829 513.12178298 -133.83349609 500.92138672 C-137.42760644 498.86988126 -140.63743975 496.54534348 -143.83349609 493.92138672 C-144.44837891 493.41994141 -145.06326172 492.91849609 -145.69677734 492.40185547 C-162.71757818 476.94618574 -170.01355276 450.92069848 -175.23828125 429.3671875 C-175.7708441 427.17883041 -176.33254898 425.00118251 -176.90771484 422.82373047 C-186.34960659 386.22205579 -189.57000174 347.19693578 -191.62744141 309.5625 C-191.84837713 305.65842959 -192.09883913 301.75672238 -192.35693359 297.85498047 C-192.49311642 295.77446952 -192.62899527 293.69393891 -192.76480103 291.61340332 C-192.88798374 289.73130671 -193.0124294 287.84929287 -193.13696289 285.96728516 C-194.46791046 264.94700889 -194.99468626 243.94589169 -195.00146484 222.88623047 C-195.00469463 220.46513349 -195.00805984 218.04403668 -195.0115509 215.62294006 C-195.01747914 210.58675689 -195.01939737 205.55059071 -195.01879883 200.5144043 C-195.01871763 195.42322228 -195.02566113 190.33213037 -195.03930664 185.2409668 C-195.18364763 130.51234934 -195.18364763 130.51234934 -192.83349609 103.92138672 C-192.75543732 102.98239532 -192.67737854 102.04340393 -192.59695435 101.07595825 C-192.14257785 95.62013281 -191.61379432 90.17630076 -191.02099609 84.73388672 C-190.93768036 83.95385284 -190.85436462 83.17381897 -190.76852417 82.37014771 C-181.11712845 -7.22549253 -181.11712845 -7.22549253 -154.64599609 -28.95361328 C-116.92943233 -53.33859522 -35.91041259 -15.29792303 0 0 Z " fill="#F7C5C9" transform="translate(304.83349609375,111.07861328125)"/>
<path d="M0 0 C1.00788574 0.47373047 2.01577148 0.94746094 3.05419922 1.43554688 C26.0847438 12.37406735 48.35375279 25.00586046 69 40 C69.75716309 40.54366211 70.51432617 41.08732422 71.29443359 41.64746094 C84.33630831 51.02171685 96.6205493 60.91066256 108.48828125 71.734375 C110.56646961 73.60894615 112.67036444 75.44142704 114.7890625 77.26953125 C119.05233166 80.99348018 123.07257825 84.92435853 127.0625 88.9375 C127.73087891 89.60201172 128.39925781 90.26652344 129.08789062 90.95117188 C133.59720035 95.46924605 137.84294468 100.15783451 142 105 C143.30324219 106.48113281 143.30324219 106.48113281 144.6328125 107.9921875 C186.58359482 156.51832755 219.12883987 221.61958264 216 287 C213.63558824 317.49932479 203.50390397 345.90100668 182.3359375 368.48828125 C180.43334291 370.53404767 178.60845778 372.61203066 176.7890625 374.73046875 C172.02786672 380.19416741 166.83647888 385.21111304 161.671875 390.2890625 C156.88950546 395.02263235 152.3757803 399.89053227 148 405 C146.97857915 406.1567318 145.95519074 407.31172966 144.9296875 408.46484375 C136.82613744 417.64702782 129.30522269 427.17436513 122 437 C121.47438477 437.69931641 120.94876953 438.39863281 120.40722656 439.11914062 C105.77711288 458.61995677 93.29870317 479.41935872 82 501 C81.3205835 502.27713867 81.3205835 502.27713867 80.62744141 503.58007812 C73.61504445 516.80302297 67.80975021 530.39027048 62.32641602 544.30029297 C62.06047134 544.97179886 61.79452667 545.64330475 61.52052307 546.3351593 C60.79563569 548.16966398 60.0772839 550.0067473 59.359375 551.84399414 C58.09136505 554.78788146 56.89443225 557.41270771 55 560 C49.91109026 560.96513806 46.9577963 560.32683713 42.5625 557.625 C33.24626462 550.59971159 27.28921964 541.90002722 22.125 531.5625 C21.52985596 530.38800293 20.93471191 529.21350586 20.3215332 528.00341797 C-2.49075713 482.49539561 -15.41865462 431.66732399 -17.5625 380.8125 C-17.60568359 379.89919922 -17.64886719 378.98589844 -17.69335938 378.04492188 C-18.25205148 365.15953087 -18.07765605 352.31587807 -17.44449806 339.43810272 C-17.30279246 336.54726662 -17.17061977 333.65601146 -17.03764057 330.76476288 C-16.96718886 329.23433433 -16.89634886 327.7039236 -16.82512951 326.17353058 C-15.03797399 287.7501357 -13.28025218 249.36831805 -17 211 C-17.11827148 209.72930664 -17.23654297 208.45861328 -17.35839844 207.14941406 C-20.97956725 168.83385099 -28.17173797 131.06888051 -36.0625 93.4375 C-36.20908806 92.73814331 -36.35567612 92.03878662 -36.50670624 91.3182373 C-40.11070366 74.14368347 -43.8531234 57.00340995 -47.77613831 39.89878845 C-48.05295944 38.68703445 -48.32978058 37.47528046 -48.61499023 36.22680664 C-48.85885971 35.16595352 -49.10272919 34.1051004 -49.35398865 33.01210022 C-50.6858852 26.80198352 -51.21020123 20.95300423 -51.25 14.625 C-51.270625 13.81289063 -51.29125 13.00078125 -51.3125 12.1640625 C-51.3535822 5.75523935 -50.48868313 0.1909353 -46.421875 -5.0234375 C-31.72165266 -16.9072621 -14.81393829 -6.97872896 0 0 Z " fill="#F9D1D9" transform="translate(771,566)"/>
<path d="M0 0 C0.33 1.32 0.66 2.64 1 4 C1.66 4 2.32 4 3 4 C8.42595543 32.24846181 11.66757202 60.6522563 13.09765625 89.37890625 C13.13999641 90.21902126 13.18233658 91.05913628 13.22595978 91.92470932 C14.23678966 112.48905426 14.31569567 133.0457736 14.25794983 153.63080978 C14.24984773 156.68235013 14.2449147 159.73388301 14.24060059 162.78543091 C14.18899344 194.55470285 13.88833044 226.27777592 12 258 C11.93447937 259.10275269 11.86895874 260.20550537 11.80145264 261.3416748 C1.9689148 424.11038815 1.9689148 424.11038815 -37 460.9375 C-48.08812021 470.43191486 -59.75522366 471.94445672 -74 471 C-103.90328925 468.17275562 -133.88916479 458.31651321 -162.16113281 448.61865234 C-164.86146276 447.71017703 -167.58490364 446.88494318 -170.3125 446.0625 C-183.46696432 442.05320483 -196.48108316 437.70882525 -209.26049805 432.62573242 C-214.7926101 430.43572184 -220.37467161 428.43693418 -226 426.5 C-233.26695193 423.99551072 -240.44362072 421.32074012 -247.59326172 418.49975586 C-254.34210192 415.84284563 -261.15195952 413.38910737 -268 411 C-267.16855469 411.56267578 -267.16855469 411.56267578 -266.3203125 412.13671875 C-259.12478032 417.21968366 -259.12478032 417.21968366 -258 422 C-262.82262205 420.49557511 -267.34159722 418.58780697 -271.9296875 416.5 C-272.70003326 416.1522905 -273.47037903 415.80458099 -274.2640686 415.44633484 C-275.92979877 414.69405055 -277.59492978 413.94043847 -279.25952148 413.18563843 C-281.91965665 411.97975642 -284.58165443 410.77807399 -287.24414062 409.57739258 C-295.45515456 405.87285998 -303.66061176 402.15628449 -311.85919189 398.42431641 C-386.27988881 361.26892223 -386.27988881 361.26892223 -466.15234375 362.75 C-477.70188808 367.81975883 -485.94502341 376.59571737 -490.9921875 388.03125 C-493.33658092 394.93721511 -494.36240699 401.59623928 -494.375 408.875 C-494.39949219 409.58140625 -494.42398438 410.2878125 -494.44921875 411.015625 C-494.55284611 431.25750358 -485.82133683 451.05080184 -479.25 469.875 C-473.56966009 486.16885469 -467.96714864 502.43484178 -463.359375 519.0703125 C-462.86452606 520.85270828 -462.86452606 520.85270828 -462.35968018 522.67111206 C-460.80196861 528.45278971 -459.54212668 534.03386854 -459 540 C-459.66 540 -460.32 540 -461 540 C-461.22139648 539.38592285 -461.44279297 538.7718457 -461.67089844 538.13916016 C-462.6954945 535.30046399 -463.72273408 532.46273104 -464.75 529.625 C-465.27207031 528.17673828 -465.27207031 528.17673828 -465.8046875 526.69921875 C-467.77225925 521.27017817 -469.81140909 515.88190136 -471.97705078 510.52880859 C-473.06178777 507.84725592 -474.12777108 505.15873864 -475.19140625 502.46875 C-479.50689281 491.59255753 -483.91155214 480.76411 -488.5 470 C-514.39746385 409.11277566 -514.39746385 409.11277566 -515 378 C-515.66 378 -516.32 378 -517 378 C-517.33 381.63 -517.66 385.26 -518 389 C-518.99 389.33 -519.98 389.66 -521 390 C-521.51046875 388.96552734 -521.51046875 388.96552734 -522.03125 387.91015625 C-528.94729143 374.50112911 -537.91065954 365.58267935 -552.375 360.625 C-594.28273889 347.63473053 -642.29763644 369.85090424 -678.79125977 388.97143555 C-710.20879474 405.76191883 -738.82816228 427.33904029 -767 449 C-767.61149902 449.47002441 -768.22299805 449.94004883 -768.85302734 450.42431641 C-771.4040995 452.38603195 -773.95388692 454.3494162 -776.50390625 456.3125 C-800.06036529 474.42740992 -800.06036529 474.42740992 -809.75366211 481.27563477 C-830.36016945 495.84047535 -850.10584367 511.27496132 -869 528 C-869 520.86088891 -863.50241404 514.61971384 -859.3125 509.1875 C-858.78358154 508.49245361 -858.25466309 507.79740723 -857.7097168 507.08129883 C-853.2706725 501.27814876 -848.67126674 495.61734609 -844 490 C-841.71175998 487.1706983 -839.42407494 484.34098187 -837.140625 481.5078125 C-834.88150865 478.86118349 -832.47131411 476.44860678 -830 474 C-828.30382369 472.15376702 -826.61676476 470.29912836 -824.9375 468.4375 C-819.162633 462.08155818 -813.11019169 456.03140698 -807 450 C-804.66581439 447.67625039 -802.338133 445.35033018 -800.05078125 442.98046875 C-799.47714844 442.38878906 -798.90351562 441.79710937 -798.3125 441.1875 C-797.73113281 440.58292969 -797.14976562 439.97835938 -796.55078125 439.35546875 C-795 438 -795 438 -793 438 C-792.70416016 437.20142578 -792.70416016 437.20142578 -792.40234375 436.38671875 C-790.35963154 432.91012499 -787.53306777 430.50603021 -784.5625 427.8125 C-783.9422998 427.24313721 -783.32209961 426.67377441 -782.68310547 426.0871582 C-777.2916779 421.17713277 -771.72316727 416.52013415 -766 412 C-772.02212974 413.97272068 -777.99436633 416.05112231 -783.9375 418.25 C-784.75742432 418.55228516 -785.57734863 418.85457031 -786.42211914 419.16601562 C-791.95272118 421.21474022 -797.45002734 423.33887746 -802.9375 425.5 C-811.70714838 428.9451159 -820.57859201 432.05945607 -829.48535156 435.12939453 C-831.94915893 435.98239813 -834.40880713 436.84633492 -836.8671875 437.71484375 C-957.1503322 480.20039627 -957.1503322 480.20039627 -985 468 C-988.59411034 465.94849454 -991.80394366 463.62395676 -995 461 C-995.61488281 460.49855469 -996.22976563 459.99710938 -996.86328125 459.48046875 C-1013.88408209 444.02479903 -1021.18005667 417.99931176 -1026.40478516 396.44580078 C-1026.937348 394.25744369 -1027.49905289 392.07979579 -1028.07421875 389.90234375 C-1037.5161105 353.30066907 -1040.73650564 314.27554906 -1042.79394531 276.64111328 C-1043.01488104 272.73704288 -1043.26534304 268.83533566 -1043.5234375 264.93359375 C-1043.65962033 262.8530828 -1043.79549918 260.77255219 -1043.93130493 258.6920166 C-1044.05448764 256.80991999 -1044.1789333 254.92790616 -1044.3034668 253.04589844 C-1044.55763743 249.03166292 -1044.78620749 245.01654365 -1045 241 C-1045.04483521 240.17980377 -1045.08967041 239.35960754 -1045.13586426 238.51455688 C-1046.13685771 219.5372081 -1046.1553166 200.56754568 -1046.13037109 181.57006836 C-1046.12466103 177.18351248 -1046.12806173 172.79701716 -1046.13382339 168.41046333 C-1046.15355739 150.58361025 -1046.11227679 132.80022919 -1045 115 C-1043.19392617 117.70911074 -1042.16756499 120.14129896 -1041.09887695 123.18994141 C-1031.29133751 151.10090864 -1013.43599895 172.23773929 -986.56591797 185.21923828 C-979.97800172 188.31865687 -973.31676497 191.19300998 -966.515625 193.796875 C-963.63658503 195.17380716 -961.41744099 196.93039225 -959 199 C-959.51691864 203.18505286 -962.05060692 205.66882889 -964.75 208.6875 C-993.48843494 241.82890524 -1012.52456899 277.96494675 -1010 323 C-1007.7197079 351.77657214 -1001.02742069 382.49299051 -979 403 C-957.34897024 420.12399627 -932.93532988 423.29095849 -905.97265625 420.57421875 C-900.93844901 419.9370985 -895.97363237 418.99771713 -891 418 C-889.85354004 417.77425293 -888.70708008 417.54850586 -887.52587891 417.31591797 C-846.20632203 409.05413729 -805.93198216 396.05036152 -767 380 C-765.9054248 379.55108398 -764.81084961 379.10216797 -763.68310547 378.63964844 C-705.5392672 354.655208 -643.08243858 326.85891877 -605 274.625 C-604.43522949 273.85124023 -603.87045898 273.07748047 -603.28857422 272.28027344 C-602.76021973 271.54067383 -602.23186523 270.80107422 -601.6875 270.0390625 C-601.21699219 269.38115723 -600.74648438 268.72325195 -600.26171875 268.04541016 C-591.14515984 253.26628272 -594.65646065 229.62179697 -594.68432617 212.78955078 C-594.68892559 209.78451438 -594.68214293 206.77988585 -594.66381836 203.77490234 C-594.48474643 174.10347746 -597.06173499 145.27874312 -602 116 C-600.02 115.34 -598.04 114.68 -596 114 C-595.76796875 114.73734375 -595.5359375 115.4746875 -595.296875 116.234375 C-593.7607882 119.51012638 -592.03876129 120.96828622 -589.25 123.25 C-574.29510195 136.31132822 -570.25514193 155.79150083 -568.25 174.8125 C-568.13424887 176.87343483 -568.05557259 178.93656539 -568 181 C-567.97953613 181.68545898 -567.95907227 182.37091797 -567.93798828 183.07714844 C-567.67540493 193.39385306 -567.94682493 203.67362855 -568.484375 213.9765625 C-568.55328194 215.30585533 -568.55328194 215.30585533 -568.62358093 216.66200256 C-568.85759653 221.11069982 -569.10651917 225.55796433 -569.3762207 230.00463867 C-569.85363184 238.27254498 -570.1051299 246.44333323 -569.6640625 254.71875 C-569.62704727 255.42663162 -569.59003204 256.13451324 -569.55189514 256.86384583 C-568.11503119 278.72578021 -559.13356036 300.94905171 -543 316 C-539.81487901 318.37755488 -536.57202897 320.26550516 -533 322 C-532.01 322.50853516 -532.01 322.50853516 -531 323.02734375 C-520.54538644 327.45830301 -506.35326949 326.05776394 -495.96484375 322.32421875 C-481.52232762 315.87360878 -473.70017393 306.09134528 -467.62109375 291.74609375 C-461.36291189 275.3253718 -459.97469324 258.44405819 -459.5703125 241.015625 C-459.5347479 239.67012807 -459.49850864 238.32464882 -459.4616394 236.97918701 C-459.30714564 231.32862634 -459.15727432 225.67800521 -459.02587891 220.02685547 C-458.0323273 177.8201944 -458.0323273 177.8201944 -452.25 159.0625 C-451.99686035 158.2060791 -451.7437207 157.3496582 -451.48291016 156.46728516 C-449.42388434 149.77200912 -446.71608892 143.57194754 -443.6015625 137.30859375 C-442.10825014 134.22362895 -440.88615714 131.16817583 -439.75 127.9375 C-436.91486195 119.91059017 -436.91486195 119.91059017 -435 117 C-432.40234375 116.3515625 -432.40234375 116.3515625 -430 116 C-431.15860815 123.16873718 -432.42554431 130.30700827 -433.80175781 137.43701172 C-438.74542255 163.19950425 -441.23715643 188.68799089 -441.45996094 214.91064453 C-441.48665591 217.30375078 -441.52767594 219.69674005 -441.58300781 222.08935547 C-442.24522373 241.23385514 -442.24522373 241.23385514 -434 258 C-433.32654541 258.9792041 -432.65309082 259.9584082 -431.95922852 260.96728516 C-430.05914329 263.72042343 -428.05380431 266.35994909 -426 269 C-425.05447266 270.25296875 -425.05447266 270.25296875 -424.08984375 271.53125 C-399.96296689 302.39877647 -365.93031479 322.57475405 -332 341 C-331.1656543 341.45745605 -330.33130859 341.91491211 -329.47167969 342.38623047 C-265.81023953 377.15296747 -167.9856454 419.37053789 -94.7421875 401.19140625 C-80.51578567 396.9234857 -69.25102474 389.52357784 -59 379 C-58.26136719 378.25878906 -57.52273438 377.51757812 -56.76171875 376.75390625 C-26.23453076 344.44843546 -16.08180538 291.55624905 -16.91113281 248.79150391 C-17.70550583 223.83858874 -30.08490492 204.4452053 -43.65307617 184.45410156 C-54 169.20908373 -54 169.20908373 -54 165 C-52.47412109 163.45043945 -52.47412109 163.45043945 -50.3984375 161.80078125 C-46.21722767 158.28823388 -42.90149948 154.54144398 -39.625 150.1875 C-39.06973633 149.45031738 -38.51447266 148.71313477 -37.94238281 147.95361328 C-6.82862101 105.69715734 -1.06529414 50.8692668 0 0 Z " fill="#F7B5B9" transform="translate(1156,144)"/>
<path d="M0 0 C6.19717036 7.17567094 6.28433642 15.07542105 5.73648071 24.17173767 C5.00011786 33.41326366 2.37462959 42.17210119 -0.125 51.0625 C-0.6610547 53.01682825 -1.19551524 54.97159435 -1.72851562 56.92675781 C-3.16730786 62.1906743 -4.62410767 67.44943106 -6.08557129 72.70709229 C-35.43050343 177.42402874 -35.43050343 177.42402874 -50 285 C-50.11019906 286.51305572 -50.22086913 288.02607722 -50.33203125 289.5390625 C-51.57319484 307.78554852 -51.53909332 326.24659408 -50.5 344.5 C-49.38442588 364.67900415 -48.55177195 385.16729263 -53 405 C-53.18272461 405.81629883 -53.36544922 406.63259766 -53.55371094 407.47363281 C-60.22783804 435.91264731 -75.96908818 477.80757348 -99 497 C-104.45055818 498.81685273 -109.84605959 498.84543773 -115.125 496.4375 C-123.87093719 491.42752417 -129.08750146 482.95493628 -134.70605469 474.86279297 C-147.39508659 456.59537534 -161.15172831 439.3879747 -176.26416016 423.06176758 C-178.69076286 420.43955735 -181.06934353 417.79164439 -183.375 415.0625 C-187.9819352 409.6356865 -193.22560948 404.98955177 -198.52734375 400.2578125 C-200.57115759 398.39158122 -202.51681105 396.49011145 -204.4375 394.5 C-208.04686668 390.83173922 -211.99948787 387.65437492 -216.0078125 384.43359375 C-218.52697934 382.38471523 -220.99108572 380.28766613 -223.44262695 378.15893555 C-233.4112283 369.5405257 -244.08757898 361.78702697 -254.90625 354.2734375 C-271.06773454 343.0360012 -287.22361709 329.95697381 -292 310 C-293.88754948 294.75412832 -290.3730547 280.49940229 -286 266 C-285.69497559 264.98824707 -285.38995117 263.97649414 -285.07568359 262.93408203 C-273.72346082 225.99655842 -256.02220386 192.23942248 -232 162 C-231.27039063 161.06800781 -230.54078125 160.13601563 -229.7890625 159.17578125 C-216.14557369 141.88474748 -201.16368658 125.99056796 -185.58056641 110.45019531 C-183.23613323 108.11116519 -180.89715129 105.76677803 -178.55859375 103.421875 C-177.04459166 101.90853313 -175.5302797 100.39550119 -174.015625 98.8828125 C-173.32897766 98.19414093 -172.64233032 97.50546936 -171.93487549 96.79592896 C-168.00953743 92.88929892 -163.98423329 89.15685631 -159.78443909 85.54632568 C-157.01569973 83.14704357 -154.35920213 80.63103805 -151.6875 78.125 C-146.91376496 73.68336889 -142.0150138 69.47866157 -136.92578125 65.3984375 C-134.1292989 63.10599402 -131.41385361 60.74505829 -128.703125 58.35302734 C-120.46179778 51.09291186 -111.88773351 44.44625826 -103 38 C-102.32743164 37.5064502 -101.65486328 37.01290039 -100.96191406 36.50439453 C-23.87575158 -19.97766969 -23.87575158 -19.97766969 0 0 Z " fill="#F9D1D9" transform="translate(550,575)"/>
<path d="M0 0 C1.80607383 2.70911074 2.83243501 5.14129896 3.90112305 8.18994141 C13.70866249 36.10090864 31.56400105 57.23773929 58.43408203 70.21923828 C65.02199828 73.31865687 71.68323503 76.19300998 78.484375 78.796875 C81.36341497 80.17380716 83.58255901 81.93039225 86 84 C85.48308136 88.18505286 82.94939308 90.66882889 80.25 93.6875 C51.51156506 126.82890524 32.47543101 162.96494675 35 208 C37.2802921 236.77657214 43.97257931 267.49299051 66 288 C87.65102976 305.12399627 112.06467012 308.29095849 139.02734375 305.57421875 C144.06155099 304.9370985 149.02636763 303.99771713 154 303 C155.14645996 302.77425293 156.29291992 302.54850586 157.47412109 302.31591797 C198.79367797 294.05413729 239.06801784 281.05036152 278 265 C279.0945752 264.55108398 280.18915039 264.10216797 281.31689453 263.63964844 C339.4607328 239.655208 401.91756142 211.85891877 440 159.625 C440.56477051 158.85124023 441.12954102 158.07748047 441.71142578 157.28027344 C442.23978027 156.54067383 442.76813477 155.80107422 443.3125 155.0390625 C443.78300781 154.38115723 444.25351562 153.72325195 444.73828125 153.04541016 C453.85484016 138.26628272 450.34353935 114.62179697 450.31567383 97.78955078 C450.31107441 94.78451438 450.31785707 91.77988585 450.33618164 88.77490234 C450.51525357 59.10347746 447.93826501 30.27874312 443 1 C447.75623741 3.18849094 450.17028387 6.00434291 452.1953125 10.875 C457.91642307 30.10562376 458.1783011 49.36403678 458.125 69.25 C458.12311676 70.3120163 458.12123352 71.37403259 458.11929321 72.4682312 C457.93489498 162.24180295 457.93489498 162.24180295 451.92114258 199.75366211 C450.99933141 205.52737523 450.62996738 211.1480027 451 217 C467.08530995 222.45199208 482.42986833 223.45594567 499.25390625 223.3984375 C501.36986898 223.40046462 503.48583101 223.40338133 505.60179138 223.40713501 C510.00990532 223.41152739 514.41783538 223.40522704 518.82592773 223.39111328 C524.43587902 223.37401287 530.04539982 223.38388802 535.65533543 223.40183067 C540.01632347 223.41274345 544.37721177 223.40918821 548.73820305 223.4014473 C550.80516551 223.39946649 552.87213746 223.40182871 554.93908882 223.40888596 C571.80311223 223.45385574 590.30380824 223.18070497 604.4375 212.5625 C605.283125 212.046875 606.12875 211.53125 607 211 C611.74813504 212.31130805 615.80802614 215.27095424 619.9375 217.875 C630.3917293 224.35711706 641.14525011 230.22066007 652 236 C652.9084668 236.48581543 653.81693359 236.97163086 654.75292969 237.47216797 C683.10254932 252.59701852 712.21189392 266.37196015 741.87890625 278.71484375 C742.62488068 279.02640411 743.3708551 279.33796448 744.13943481 279.65896606 C747.76634789 281.1732691 751.39710977 282.67607094 755.03808594 284.15625 C761.34451427 286.75471289 767.19884649 289.31759243 772.47265625 293.75952148 C774.75214305 295.61087577 777.37177966 296.71509228 780 298 C783.83023113 300.61152123 785.63794738 302.54237324 787 307 C782.17737795 305.49557511 777.65840278 303.58780697 773.0703125 301.5 C772.29996674 301.1522905 771.52962097 300.80458099 770.7359314 300.44633484 C769.07020123 299.69405055 767.40507022 298.94043847 765.74047852 298.18563843 C763.08034335 296.97975642 760.41834557 295.77807399 757.75585938 294.57739258 C749.54484544 290.87285998 741.33938824 287.15628449 733.14080811 283.42431641 C658.72011119 246.26892223 658.72011119 246.26892223 578.84765625 247.75 C567.29811192 252.81975883 559.05497659 261.59571737 554.0078125 273.03125 C551.66341908 279.93721511 550.63759301 286.59623928 550.625 293.875 C550.60050781 294.58140625 550.57601562 295.2878125 550.55078125 296.015625 C550.44715389 316.25750358 559.17866317 336.05080184 565.75 354.875 C571.43033991 371.16885469 577.03285136 387.43484178 581.640625 404.0703125 C581.97052429 405.25857635 582.30042358 406.44684021 582.64031982 407.67111206 C584.19803139 413.45278971 585.45787332 419.03386854 586 425 C585.34 425 584.68 425 584 425 C583.77860352 424.38592285 583.55720703 423.7718457 583.32910156 423.13916016 C582.3045055 420.30046399 581.27726592 417.46273104 580.25 414.625 C579.90195312 413.65949219 579.55390625 412.69398438 579.1953125 411.69921875 C577.22774075 406.27017817 575.18859091 400.88190136 573.02294922 395.52880859 C571.93821223 392.84725592 570.87222892 390.15873864 569.80859375 387.46875 C565.49310719 376.59255753 561.08844786 365.76411 556.5 355 C530.60253615 294.11277566 530.60253615 294.11277566 530 263 C529.34 263 528.68 263 528 263 C527.67 266.63 527.34 270.26 527 274 C526.01 274.33 525.02 274.66 524 275 C523.48953125 273.96552734 523.48953125 273.96552734 522.96875 272.91015625 C516.05270857 259.50112911 507.08934046 250.58267935 492.625 245.625 C450.71726111 232.63473053 402.70236356 254.85090424 366.20874023 273.97143555 C334.79120526 290.76191883 306.17183772 312.33904029 278 334 C277.38850098 334.47002441 276.77700195 334.94004883 276.14697266 335.42431641 C273.5959005 337.38603195 271.04611308 339.3494162 268.49609375 341.3125 C244.93963471 359.42740992 244.93963471 359.42740992 235.24633789 366.27563477 C214.63983055 380.84047535 194.89415633 396.27496132 176 413 C176 405.86088891 181.49758596 399.61971384 185.6875 394.1875 C186.21641846 393.49245361 186.74533691 392.79740723 187.2902832 392.08129883 C191.7293275 386.27814876 196.32873326 380.61734609 201 375 C203.28824002 372.1706983 205.57592506 369.34098187 207.859375 366.5078125 C210.11849135 363.86118349 212.52868589 361.44860678 215 359 C216.69617631 357.15376702 218.38323524 355.29912836 220.0625 353.4375 C225.837367 347.08155818 231.88980831 341.03140698 238 335 C240.33418561 332.67625039 242.661867 330.35033018 244.94921875 327.98046875 C245.52285156 327.38878906 246.09648437 326.79710937 246.6875 326.1875 C247.26886719 325.58292969 247.85023438 324.97835938 248.44921875 324.35546875 C250 323 250 323 252 323 C252.29583984 322.20142578 252.29583984 322.20142578 252.59765625 321.38671875 C254.64036846 317.91012499 257.46693223 315.50603021 260.4375 312.8125 C261.0577002 312.24313721 261.67790039 311.67377441 262.31689453 311.0871582 C267.7083221 306.17713277 273.27683273 301.52013415 279 297 C272.97787026 298.97272068 267.00563367 301.05112231 261.0625 303.25 C260.24257568 303.55228516 259.42265137 303.85457031 258.57788086 304.16601562 C253.04727882 306.21474022 247.54997266 308.33887746 242.0625 310.5 C233.29285162 313.9451159 224.42140799 317.05945607 215.51464844 320.12939453 C213.05084107 320.98239813 210.59119287 321.84633492 208.1328125 322.71484375 C87.8496678 365.20039627 87.8496678 365.20039627 60 353 C56.40588966 350.94849454 53.19605634 348.62395676 50 346 C49.38511719 345.49855469 48.77023438 344.99710938 48.13671875 344.48046875 C31.11591791 329.02479903 23.81994333 302.99931176 18.59521484 281.44580078 C18.062652 279.25744369 17.50094711 277.07979579 16.92578125 274.90234375 C7.4838895 238.30066907 4.26349436 199.27554906 2.20605469 161.64111328 C1.98511896 157.73704288 1.73465696 153.83533566 1.4765625 149.93359375 C1.34037967 147.8530828 1.20450082 145.77255219 1.06869507 143.6920166 C0.94551236 141.80991999 0.8210667 139.92790616 0.6965332 138.04589844 C0.44236257 134.03166292 0.21379251 130.01654365 0 126 C-0.04483521 125.17980377 -0.08967041 124.35960754 -0.13586426 123.51455688 C-1.13685771 104.5372081 -1.1553166 85.56754568 -1.13037109 66.57006836 C-1.12466103 62.18351248 -1.12806173 57.79701716 -1.13382339 53.41046333 C-1.15355739 35.58361025 -1.11227679 17.80022919 0 0 Z " fill="#F7B5B9" transform="translate(111,259)"/>
<path d="M0 0 C1.34944918 0.40480383 2.69897928 0.80933803 4.04858398 1.21362305 C49.2210308 14.89939144 92.53701244 33.50410403 134.875 54.25 C135.81923828 54.71116211 136.76347656 55.17232422 137.73632812 55.64746094 C150.69389944 61.9911781 163.40004317 68.72106586 176.03027344 75.69091797 C178.95123885 77.2917835 181.88354085 78.86974093 184.8203125 80.44140625 C211.59664259 94.77767417 238.28895404 109.97294321 261.875 129.25 C262.8753125 130.04792969 263.875625 130.84585938 264.90625 131.66796875 C289.53490533 151.64471519 289.53490533 151.64471519 296.875 163.25 C297.27597282 171.1601001 293.4308231 180.22742208 288.23828125 186.1015625 C280.55516796 193.11132429 272.03108317 194.59907502 261.875 194.25 C257.78312101 193.90917839 253.71253781 193.42442163 249.63671875 192.9296875 C248.45910477 192.7906752 247.28149078 192.6516629 246.06819153 192.50843811 C242.232204 192.05339332 238.39730959 191.58986057 234.5625 191.125 C233.23406851 190.96518396 231.90561786 190.80552704 230.57714844 190.64602661 C60.14208083 170.16679335 60.14208083 170.16679335 3.80566406 139.30371094 C1.67183255 138.139116 -0.47984 137.01159952 -2.6328125 135.8828125 C-16.28732674 128.62559861 -27.87150308 119.89965074 -39.125 109.25 C-39.96933594 108.45851563 -40.81367188 107.66703125 -41.68359375 106.8515625 C-60.40051983 88.78987128 -66.77566516 65.81521574 -67.4375 40.1875 C-66.98828401 28.35814572 -64.70862373 17.94210672 -56.5625 9 C-40.81930712 -5.56613173 -19.35492626 -5.94872176 0 0 Z " fill="#F9D1D9" transform="translate(231.125,146.75)"/>
<path d="M0 0 C7.86417944 7.64924206 10.63144588 17.75745572 10.8125 28.5 C10.62956942 44.92310116 4.08403801 59.0729561 -4.0625 73 C-4.67496582 74.04728271 -5.28743164 75.09456543 -5.91845703 76.17358398 C-10.66471835 84.0949177 -15.65289662 90.72805958 -22.4375 97 C-23.07429688 97.60714844 -23.71109375 98.21429688 -24.3671875 98.83984375 C-26.33663723 100.63601572 -28.36955083 102.31783631 -30.4375 104 C-30.94200684 104.42216797 -31.44651367 104.84433594 -31.96630859 105.27929688 C-95.70650101 158.612554 -179.05534439 174.75503646 -259.98477173 175.17523193 C-261.42324853 175.18324351 -262.86171272 175.19422002 -264.30014038 175.20855713 C-281.3344345 175.36119553 -298.06892024 174.00351854 -313.4375 166 C-312.46743575 146.59871499 -299.29973192 132.26302496 -286.4375 119 C-285.37015625 117.87271484 -285.37015625 117.87271484 -284.28125 116.72265625 C-279.92468921 112.21433002 -275.22113859 108.25524927 -270.33203125 104.3359375 C-267.46702899 102.02383041 -264.67341335 99.64200478 -261.875 97.25 C-204.64649958 49.60874836 -109.12574798 -3.6095968 0 0 Z " fill="#F9D1D9" transform="translate(1078.4375,155)"/>
<path d="M0 0 C1.23041016 0.20399414 2.46082031 0.40798828 3.72851562 0.61816406 C37.55230587 6.3211168 75.80648593 14.17235172 102 38 C102.96421875 38.87140625 103.9284375 39.7428125 104.921875 40.640625 C120.01072854 54.74568432 132.50817842 74.71351739 134.3125 95.62109375 C134.78929377 110.17820341 130.83081181 121.42042531 121.0390625 132.1484375 C109.84039803 143.01405619 92.55153296 149.34976169 77 150 C75.88882813 150.0515625 74.77765625 150.103125 73.6328125 150.15625 C33.25230056 151.11578692 -2.08318436 131.08908885 -35.70870972 110.94425964 C-42.00988303 107.16947104 -48.35538333 103.4887375 -54.75 99.875 C-135.34310812 54.08504502 -135.34310812 54.08504502 -144.75 29 C-145.59639406 22.22884749 -144.88279409 17.58770367 -141 12 C-132.85993988 2.57668334 -121.62241464 0.52049225 -109.75 -0.6875 C-108.73292969 -0.80416016 -107.71585938 -0.92082031 -106.66796875 -1.04101562 C-103.44780361 -1.39769224 -100.22669776 -1.70846398 -97 -2 C-95.9380542 -2.09716309 -94.8761084 -2.19432617 -93.78198242 -2.29443359 C-63.10265102 -4.71849028 -30.38886027 -5.14428202 0 0 Z " fill="#F9D1D9" transform="translate(920,356)"/>
<path d="M0 0 C1.05119019 -0.00295074 2.10238037 -0.00590149 3.1854248 -0.00894165 C28.66182093 -0.02492583 53.9655499 1.83858104 79.33172607 4.06256104 C81.93189692 4.29012947 84.53246529 4.51211738 87.13330078 4.73193359 C133.51638061 8.69204852 133.51638061 8.69204852 147.1875 20.3125 C150.4071406 24.44335963 151.74952158 28.06027452 151.1875 33.3125 C140.29498381 50.91918622 116.27299703 62.75754957 98.1875 71.3125 C97.10815186 71.83392578 96.02880371 72.35535156 94.91674805 72.89257812 C85.73929765 77.2913127 76.41450559 81.02980483 66.875 84.5625 C64.46761085 85.46121821 62.06099938 86.36199689 59.65446472 87.26300049 C57.93467117 87.90685274 56.2146239 88.55002767 54.49433899 89.19256592 C47.55216872 91.789207 40.62954247 94.43503615 33.7109375 97.09375 C-85.03507627 142.68502818 -85.03507627 142.68502818 -131.8125 124.3125 C-138.40202661 121.04689389 -143.04173757 116.62852707 -146.8125 110.3125 C-150.11315126 100.41054622 -147.90376051 88.60219204 -143.8125 79.3125 C-126.90098621 45.93924672 -102.24571877 19.89484731 -66.4375 7.6875 C-44.97234504 0.9423825 -22.30980006 0.05540876 0 0 Z " fill="#F9D1D9" transform="translate(361.8125,367.6875)"/>
<path d="M0 0 C4.74813504 1.31130805 8.80802614 4.27095424 12.9375 6.875 C23.3917293 13.35711706 34.14525011 19.22066007 45 25 C45.9084668 25.48581543 46.81693359 25.97163086 47.75292969 26.47216797 C76.10254932 41.59701852 105.21189392 55.37196015 134.87890625 67.71484375 C135.99786789 68.1821843 135.99786789 68.1821843 137.13943481 68.65896606 C140.76634789 70.1732691 144.39710977 71.67607094 148.03808594 73.15625 C154.34451427 75.75471289 160.19884649 78.31759243 165.47265625 82.75952148 C167.75214305 84.61087577 170.37177966 85.71509228 173 87 C176.83023113 89.61152123 178.63794738 91.54237324 180 96 C175.17737795 94.49557511 170.65840278 92.58780697 166.0703125 90.5 C165.29996674 90.1522905 164.52962097 89.80458099 163.7359314 89.44633484 C162.07020123 88.69405055 160.40507022 87.94043847 158.74047852 87.18563843 C156.08034335 85.97975642 153.41834557 84.77807399 150.75585938 83.57739258 C142.54484544 79.87285998 134.33938824 76.15628449 126.14080811 72.42431641 C51.72011119 35.26892223 51.72011119 35.26892223 -28.15234375 36.75 C-39.70188808 41.81975883 -47.94502341 50.59571737 -52.9921875 62.03125 C-55.33658092 68.93721511 -56.36240699 75.59623928 -56.375 82.875 C-56.39949219 83.58140625 -56.42398437 84.2878125 -56.44921875 85.015625 C-56.55284611 105.25750358 -47.82133683 125.05080184 -41.25 143.875 C-35.56966009 160.16885469 -29.96714864 176.43484178 -25.359375 193.0703125 C-25.02947571 194.25857635 -24.69957642 195.44684021 -24.35968018 196.67111206 C-22.80196861 202.45278971 -21.54212668 208.03386854 -21 214 C-21.66 214 -22.32 214 -23 214 C-23.22139648 213.38592285 -23.44279297 212.7718457 -23.67089844 212.13916016 C-24.6954945 209.30046399 -25.72273408 206.46273104 -26.75 203.625 C-27.09804688 202.65949219 -27.44609375 201.69398438 -27.8046875 200.69921875 C-29.77225925 195.27017817 -31.81140909 189.88190136 -33.97705078 184.52880859 C-35.06178777 181.84725592 -36.12777108 179.15873864 -37.19140625 176.46875 C-41.50689281 165.59255753 -45.91155214 154.76411 -50.5 144 C-76.39746385 83.11277566 -76.39746385 83.11277566 -77 52 C-77.66 52 -78.32 52 -79 52 C-79.33 55.63 -79.66 59.26 -80 63 C-81.485 63.495 -81.485 63.495 -83 64 C-83.3403125 63.31035156 -83.680625 62.62070312 -84.03125 61.91015625 C-90.94729143 48.50112911 -99.91065954 39.58267935 -114.375 34.625 C-156.28273889 21.63473053 -204.29763644 43.85090424 -240.79125977 62.97143555 C-272.20879474 79.76191883 -300.82816228 101.33904029 -329 123 C-329.61149902 123.47002441 -330.22299805 123.94004883 -330.85302734 124.42431641 C-333.4040995 126.38603195 -335.95388692 128.3494162 -338.50390625 130.3125 C-362.06036529 148.42740992 -362.06036529 148.42740992 -371.75366211 155.27563477 C-392.36016945 169.84047535 -412.10584367 185.27496132 -431 202 C-431 194.86088891 -425.50241404 188.61971384 -421.3125 183.1875 C-420.78358154 182.49245361 -420.25466309 181.79740723 -419.7097168 181.08129883 C-415.2706725 175.27814876 -410.67126674 169.61734609 -406 164 C-403.71175998 161.1706983 -401.42407494 158.34098187 -399.140625 155.5078125 C-396.88150865 152.86118349 -394.47131411 150.44860678 -392 148 C-390.30382369 146.15376702 -388.61676476 144.29912836 -386.9375 142.4375 C-381.162633 136.08155818 -375.11019169 130.03140698 -369 124 C-366.66581439 121.67625039 -364.338133 119.35033018 -362.05078125 116.98046875 C-361.47714844 116.38878906 -360.90351563 115.79710937 -360.3125 115.1875 C-359.73113281 114.58292969 -359.14976562 113.97835937 -358.55078125 113.35546875 C-357 112 -357 112 -355 112 C-354.7328418 111.4030835 -354.46568359 110.80616699 -354.19042969 110.19116211 C-352.97945987 107.96219284 -351.81423627 106.6433362 -349.953125 104.94140625 C-349.355 104.39033203 -348.756875 103.83925781 -348.140625 103.27148438 C-347.51671875 102.70751953 -346.8928125 102.14355469 -346.25 101.5625 C-345.6415625 101.00240234 -345.033125 100.44230469 -344.40625 99.86523438 C-334.08912852 90.41889559 -334.08912852 90.41889559 -330.5625 89.0625 C-326.75292099 87.48291846 -324.01672863 84.7646101 -321 82 C-321.33 81.34 -321.66 80.68 -322 80 C-320.845 79.64421875 -319.69 79.2884375 -318.5 78.921875 C-311.16097657 76.46981811 -304.09846182 73.31437065 -297 70.25 C-295.85301636 69.75629913 -295.85301636 69.75629913 -294.68286133 69.25262451 C-258.48091791 53.65928044 -222.30487956 37.47352681 -188 18 C-187.06929687 17.4750293 -186.13859375 16.95005859 -185.1796875 16.40917969 C-172.73242125 9.42167375 -172.73242125 9.42167375 -160.60693359 1.89819336 C-159 1 -159 1 -157 1 C-156.67 2.65 -156.34 4.3 -156 6 C-139.91469005 11.45199208 -124.57013167 12.45594567 -107.74609375 12.3984375 C-105.63013102 12.40046462 -103.51416899 12.40338133 -101.39820862 12.40713501 C-96.99009468 12.41152739 -92.58216462 12.40522704 -88.17407227 12.39111328 C-82.56412098 12.37401287 -76.95460018 12.38388802 -71.34466457 12.40183067 C-66.98367653 12.41274345 -62.62278823 12.40918821 -58.26179695 12.4014473 C-56.19483449 12.39946649 -54.12786254 12.40182871 -52.06091118 12.40888596 C-35.19688777 12.45385574 -16.69619176 12.18070497 -2.5625 1.5625 C-1.716875 1.046875 -0.87125 0.53125 0 0 Z " fill="#F39999" transform="translate(718,470)"/>
<path d="M0 0 C6.03295794 6.20532817 8.08857187 12.71326302 8.1875 21.25 C7.8131765 24.96809895 7.12159932 28.59039793 6.375 32.25 C2.21280474 53.25631399 2.00154593 73.50995052 2.30395508 94.87426758 C3.01208937 149.05177308 3.01208937 149.05177308 -13.125 165.625 C-19.74289991 169.62652087 -26.47797176 171.31868679 -34.15234375 169.78125 C-45.1615444 166.93141069 -52.69071396 160.7569262 -58.8125 151.25 C-73.73122993 124.05146643 -74.11678877 88.42626716 -75.8125 58.25 C-75.87034668 57.26080566 -75.92819336 56.27161133 -75.98779297 55.25244141 C-76.33319967 49.25343422 -76.60729625 43.25537639 -76.8125 37.25 C-76.84118164 36.5079834 -76.86986328 35.7659668 -76.89941406 35.00146484 C-77.36124467 21.96790369 -76.51043923 9.52528467 -67.25 -0.4296875 C-49.57030673 -16.88162429 -18.68695907 -11.6274412 0 0 Z " fill="#F9D1D9" transform="translate(672.8125,262.75)"/>
<path d="M0 0 C7.3958294 3.36222572 14.79860409 6.70867216 22.21051025 10.03530884 C23.94603338 10.81461403 25.68066376 11.59590648 27.41525269 12.37728882 C34.44379955 15.53059328 41.52079554 18.54632934 48.64645386 21.47348022 C48.97645386 20.81348022 49.30645386 20.15348022 49.64645386 19.47348022 C50.26520386 20.054646 50.26520386 20.054646 50.89645386 20.64755249 C60.85375265 30.00269577 60.85375265 30.00269577 71.06051636 39.08285522 C73.3842191 41.12038768 75.55981134 43.19121497 77.64645386 45.47348022 C77.64645386 46.13348022 77.64645386 46.79348022 77.64645386 47.47348022 C78.20332886 47.70035522 78.76020386 47.92723022 79.33395386 48.16098022 C82.30804973 49.84898059 84.36654251 51.94024539 86.64645386 54.47348022 C86.64645386 55.13348022 86.64645386 55.79348022 86.64645386 56.47348022 C87.28582886 56.74160522 87.92520386 57.00973022 88.58395386 57.28598022 C90.64645386 58.47348022 90.64645386 58.47348022 91.64645386 61.47348022 C92.30645386 61.80348022 92.96645386 62.13348022 93.64645386 62.47348022 C94.30645386 62.80348022 94.96645386 63.13348022 95.64645386 63.47348022 C95.97645386 64.46348022 96.30645386 65.45348022 96.64645386 66.47348022 C97.63645386 66.80348022 98.62645386 67.13348022 99.64645386 67.47348022 C103.64645386 71.93062308 103.64645386 71.93062308 103.64645386 74.47348022 C104.63645386 74.80348022 105.62645386 75.13348022 106.64645386 75.47348022 C108.33395386 77.53598022 108.33395386 77.53598022 109.64645386 79.47348022 C109.31645386 80.13348022 108.98645386 80.79348022 108.64645386 81.47348022 C108.1808606 81.1728064 107.71526733 80.87213257 107.23556519 80.56234741 C75.75181301 60.29571117 42.52822292 43.70341922 8.75192261 27.67269897 C-11.60979846 18.00433446 -31.92350695 8.12739267 -51.79104614 -2.52651978 C-60.04102979 -6.93301607 -68.420097 -11.07623718 -76.81939697 -15.18887329 C-78.35714409 -15.94255836 -79.8937111 -16.69865707 -81.42895508 -17.45742798 C-100.49973872 -26.87089928 -120.75002798 -35.95409534 -142.16604614 -28.77651978 C-152.91925767 -24.42586604 -159.02745756 -17.32027352 -163.66604614 -6.65151978 C-168.84197325 7.73844999 -167.92395607 22.27349597 -164.20510864 36.85629272 C-163.98601334 37.72174713 -163.76691803 38.58720154 -163.54118347 39.47888184 C-161.37437985 47.78940646 -158.61372342 55.83992326 -155.67825317 63.90533447 C-154.11538096 68.20909277 -152.59187105 72.52674391 -151.06838989 76.84457397 C-150.75739349 77.72543167 -150.44639709 78.60628937 -150.12597656 79.51383972 C-133.19420425 127.69326042 -118.77763488 176.53332712 -129.41604614 227.72348022 C-131.74096649 238.91585816 -132.17189542 250.06863366 -132.35354614 261.47348022 C-132.68354614 261.47348022 -133.01354614 261.47348022 -133.35354614 261.47348022 C-133.36812866 260.81791138 -133.38271118 260.16234253 -133.3977356 259.48690796 C-134.06867573 232.00681216 -136.26350451 205.25851686 -142.64553833 178.46127319 C-143.27502007 175.80486024 -143.87381244 173.14467124 -144.45510864 170.47738647 C-146.24268918 162.38221301 -148.5257079 154.61624752 -151.40042114 146.84066772 C-152.35354614 143.47348022 -152.35354614 143.47348022 -152.33010864 140.21566772 C-152.36208361 135.11033053 -153.6267243 130.62636227 -154.97854614 125.72348022 C-155.27921997 124.62076782 -155.5798938 123.51805542 -155.88967896 122.38192749 C-161.97192921 100.65231577 -169.33702913 79.25712111 -176.59963989 57.89926147 C-177.10330715 56.41174194 -177.60689005 54.92419384 -178.11038208 53.43661499 C-179.02544667 50.73380244 -179.95299968 48.03581083 -180.88967896 45.34042358 C-184.81298765 33.80598747 -187.96316844 22.06185038 -187.72854614 9.78598022 C-187.71839478 8.98418335 -187.70824341 8.18238647 -187.69778442 7.35629272 C-187.35204642 -5.95864045 -183.3664079 -17.55246266 -174.10354614 -27.33901978 C-128.75192759 -69.59676751 -45.171401 -20.53930784 0 0 Z " fill="#F6B5B9" transform="translate(848.3535461425781,543.5265197753906)"/>
<path d="M0 0 C6.18466715 5.12417036 10.02894777 10.64999748 13.953125 17.54296875 C14.69369141 18.79400391 14.69369141 18.79400391 15.44921875 20.0703125 C15.77921875 20.0703125 16.10921875 20.0703125 16.44921875 20.0703125 C16.12293941 36.32495611 11.30630057 52.01636602 5.44921875 67.0703125 C4.78921875 67.0703125 4.12921875 67.0703125 3.44921875 67.0703125 C3.48402344 66.17505859 3.48402344 66.17505859 3.51953125 65.26171875 C3.90909984 46.53459991 0.8033173 28.01017475 -9.55078125 12.0703125 C-10.87709102 10.72999241 -12.20864733 9.39478677 -13.55078125 8.0703125 C-13.55078125 7.4103125 -13.55078125 6.7503125 -13.55078125 6.0703125 C-14.06640625 5.8434375 -14.58203125 5.6165625 -15.11328125 5.3828125 C-17.55078125 4.0703125 -17.55078125 4.0703125 -20.48828125 1.6953125 C-30.62009543 -5.50810813 -43.55225744 -6.35217945 -55.55078125 -4.9296875 C-73.94889722 -1.61828233 -91.0162815 9.63520395 -106.70507812 19.20770264 C-114.34159842 23.85103855 -122.12202928 28.13485455 -130.04275513 32.27087402 C-143.11944871 39.10504079 -156.03186947 46.18599708 -168.83398438 53.52294922 C-171.6002831 55.09850649 -174.37806331 56.65173972 -177.16015625 58.19921875 C-197.11503536 69.3195053 -216.74980168 81.07968592 -235.55078125 94.0703125 C-236.32615234 94.60366211 -237.10152344 95.13701172 -237.90039062 95.68652344 C-252.27168013 105.58956805 -266.13196412 115.90045913 -279.55078125 127.0703125 C-280.55625 127.90046875 -281.56171875 128.730625 -282.59765625 129.5859375 C-298.94279466 143.17039587 -315.28183999 157.80014648 -328.484375 174.50390625 C-330.54267657 177.06024676 -332.7015256 179.47026007 -334.92578125 181.8828125 C-348.89173555 197.27189513 -361.32680588 214.60692225 -372.55078125 232.0703125 C-374.52397276 226.15073796 -371.99885904 221.47144513 -369.42578125 216.1328125 C-369.11519775 215.47966064 -368.80461426 214.82650879 -368.48461914 214.15356445 C-367.51422873 212.12207694 -366.53393946 210.09564791 -365.55078125 208.0703125 C-365.2480127 207.44286133 -364.94524414 206.81541016 -364.63330078 206.16894531 C-361.32806011 199.34113307 -357.86794317 192.69049699 -353.8828125 186.234375 C-352.72173273 184.34804598 -351.62509295 182.44422618 -350.55078125 180.5078125 C-348.50132339 176.98530681 -346.27392052 173.63961618 -343.9921875 170.265625 C-342.73963123 168.35793767 -341.59324186 166.44050454 -340.48828125 164.4453125 C-338.38520726 160.78189329 -336.05017086 157.47225946 -333.55078125 154.0703125 C-333.55078125 155.0603125 -333.55078125 156.0503125 -333.55078125 157.0703125 C-326.82343866 152.09860435 -320.42127545 146.69838513 -314.10253906 141.22119141 C-303.92408706 132.44235663 -292.98202473 124.68388102 -282.0703125 116.8515625 C-271.24499042 109.07935146 -260.60655012 101.09018987 -250.03466797 92.9765625 C-245.69584335 89.64674703 -241.34949441 86.32676512 -237.00366211 83.00610352 C-233.13979988 80.05293423 -229.28059885 77.09387477 -225.42578125 74.12890625 C-200.98911899 55.36687575 -175.61113035 36.90851317 -148.55078125 22.0703125 C-147.70692871 21.60463867 -146.86307617 21.13896484 -145.99365234 20.65917969 C-106.4095862 -1.0243504 -41.61927038 -31.48532859 0 0 Z " fill="#F6B5B9" transform="translate(620.55078125,512.9296875)"/>
<path d="M0 0 C4.75623741 2.18849094 7.17028387 5.00434291 9.1953125 9.875 C14.91642307 29.10562376 15.1783011 48.36403678 15.125 68.25 C15.12311676 69.3120163 15.12123352 70.37403259 15.11929321 71.4682312 C15.04514314 107.56791126 14.86450301 143.65890013 11.40625 179.62011719 C11.13313425 182.47852899 10.8954038 185.33575701 10.6953125 188.20019531 C9.18327036 209.63188255 9.18327036 209.63188255 4.2265625 214.06640625 C1.13835951 215.87198031 -1.67345501 217.11479895 -5.03466797 218.25537109 C-8.36825519 219.51840725 -11.24363548 221.48357356 -14.25 223.375 C-48.97758481 244.10239405 -85.99395846 260.83755363 -123 277 C-124.41504159 277.61929762 -125.83008069 278.23860091 -127.24511719 278.85791016 C-130.53151389 280.29472154 -133.82083298 281.72460843 -137.11300659 283.14813232 C-138.88829442 283.91621119 -140.6620656 284.68779255 -142.43579102 285.45947266 C-143.49725342 285.91499512 -144.55871582 286.37051758 -145.65234375 286.83984375 C-146.57007568 287.23550537 -147.48780762 287.63116699 -148.43334961 288.03881836 C-151 289 -151 289 -153.76635742 289.51879883 C-154.50345947 289.67759521 -155.24056152 289.8363916 -156 290 C-157.14064972 291.86431688 -157.14064972 291.86431688 -158 294 C-159.7265625 295.703125 -159.7265625 295.703125 -161.625 297.25 C-162.25664062 297.77078125 -162.88828125 298.2915625 -163.5390625 298.828125 C-164.02117187 299.21484375 -164.50328125 299.6015625 -165 300 C-165.66 299.67 -166.32 299.34 -167 299 C-166.01 298.01 -165.02 297.02 -164 296 C-165.32 295.34 -166.64 294.68 -168 294 C-167.41734375 293.68361572 -166.8346875 293.36723145 -166.234375 293.04125977 C-163.48892229 291.549553 -160.74446429 290.05602443 -158 288.5625 C-157.08476562 288.06556641 -156.16953125 287.56863281 -155.2265625 287.05664062 C-150.9005964 284.7010632 -146.57937907 282.34598236 -142.32128906 279.86938477 C-133.17022721 274.5709162 -123.85049995 270.06145246 -114.15200806 265.85629272 C-85.27023603 253.30571721 -56.39603017 240.28218979 -32 220 C-31.225354 219.36094727 -31.225354 219.36094727 -30.43505859 218.70898438 C-4.37065285 196.95507541 3.19417565 164.46197845 6.53710938 132.07080078 C7.1562665 125.02712883 7.18380171 117.98811923 7.203125 110.921875 C7.20595238 110.20940865 7.20877975 109.49694229 7.21169281 108.76288605 C7.22660752 104.97294258 7.23587881 101.18303625 7.24023438 97.39306641 C7.24456765 94.33337134 7.25826716 91.27396647 7.28125 88.21435547 C7.50064002 58.37732604 4.96624651 29.4446441 0 0 Z " fill="#F3A7AC" transform="translate(554,260)"/>
<path d="M0 0 C-1.15860815 7.16873718 -2.42554431 14.30700827 -3.80175781 21.43701172 C-6.44836702 35.22905739 -8.58340061 49.02623266 -10 63 C-10.09643799 63.88147705 -10.19287598 64.7629541 -10.29223633 65.67114258 C-11.32038381 76.55778698 -11.18606305 87.49133277 -11.18530273 98.41625977 C-11.1874754 101.89807626 -11.20564259 105.37956799 -11.22460938 108.86132812 C-11.32325427 147.57756092 -7.2593023 185.51376528 20 215 C20.59425781 215.66386719 21.18851563 216.32773437 21.80078125 217.01171875 C43.44713209 240.05460835 76.48872991 253.19594274 104.70703125 266.08984375 C110.2008948 268.60678625 115.61877128 271.25108455 121 274 C116.82637233 275.39120922 114.40412178 273.65824828 110.6328125 271.87109375 C109.89455231 271.53044388 109.15629211 271.18979401 108.3956604 270.83882141 C105.96737871 269.71492515 103.54614717 268.57667516 101.125 267.4375 C99.44068909 266.65276331 97.75611635 265.86858835 96.07128906 265.08496094 C91.03984712 262.73949437 86.018701 260.3725828 81 258 C80.28912231 257.66454163 79.57824463 257.32908325 78.8458252 256.98345947 C56.86078641 246.60483296 35.09929335 235.82970133 14.0625 223.625 C12.61556763 222.78678711 12.61556763 222.78678711 11.1394043 221.93164062 C8.40349124 220.32191408 5.69654835 218.67475046 3 217 C2.06196533 216.42612549 1.12393066 215.85225098 0.1574707 215.26098633 C-6.55046779 210.9209087 -6.55046779 210.9209087 -8.52734375 206.87109375 C-8.66269531 205.73800781 -8.79804687 204.60492188 -8.9375 203.4375 C-9.02628418 202.78402588 -9.11506836 202.13055176 -9.20654297 201.45727539 C-9.52335805 198.97519124 -9.76001016 196.49070541 -10 194 C-10.26299828 191.60402089 -10.52743707 189.20819967 -10.79296875 186.8125 C-14.66564591 150.68476504 -15.10706955 114.5940881 -15.18122482 78.30390549 C-15.18744713 75.89546545 -15.1973477 73.48706667 -15.20828247 71.0786438 C-15.44178034 16.18515007 -15.44178034 16.18515007 -5 1 C-2 0 -2 0 0 0 Z " fill="#F3A7AC" transform="translate(726,260)"/>
<path d="M0 0 C0.86616491 2.410198 1.1663451 3.57627518 0.21484375 6 C-4.32357956 13.10603283 -9.25975872 16.35821974 -17.46337891 18.29516602 C-35.71048868 21.93173967 -54.50991334 21.31220486 -73.02636719 21.26074219 C-77.16779479 21.24934843 -81.30896533 21.25611559 -85.45038414 21.26762581 C-140.66726283 21.3978796 -140.66726283 21.3978796 -152 12 C-154.375 9.25 -154.375 9.25 -156 7 C-154 6 -154 6 -151.6015625 6.70703125 C-149.64262171 7.43456438 -147.68427098 8.1636886 -145.7265625 8.89453125 C-133.34989352 12.56601691 -120.9212238 12.31060927 -108.13671875 12.30078125 C-106.01503924 12.3046768 -103.8933605 12.30901322 -101.77168274 12.31376648 C-97.33970606 12.32119598 -92.90780909 12.32096141 -88.47583008 12.31567383 C-82.83439669 12.30988597 -77.19329234 12.32680994 -71.55191326 12.3500185 C-67.17377356 12.36484772 -62.79571141 12.36561507 -58.41755104 12.36250877 C-56.33941815 12.36301745 -54.26128038 12.36816863 -52.18317223 12.37832069 C-33.78994596 12.45715927 -15.3413505 11.50601287 0 0 Z " fill="#F3A6AC" transform="translate(718,470)"/>
<path d="M0 0 C0.33 0 0.66 0 1 0 C1 13.53 1 27.06 1 41 C0.34 41 -0.32 41 -1 41 C-1 43.64 -1 46.28 -1 49 C-1.33 49 -1.66 49 -2 49 C-1.35205164 32.66586781 -0.68650162 16.33255776 0 0 Z " fill="#F8BCC1" transform="translate(571,926)"/>
<path d="M0 0 C1.32 0.33 2.64 0.66 4 1 C4.50588147 2.91512272 5.00448391 4.83216922 5.5 6.75 C5.7784375 7.81734375 6.056875 8.8846875 6.34375 9.984375 C7 13 7 13 7 17 C6.34 17 5.68 17 5 17 C4.16080602 14.73117913 3.32848276 12.46022973 2.5 10.1875 C2.26152344 9.54490234 2.02304687 8.90230469 1.77734375 8.24023438 C0.72931254 5.35066261 0 3.09923939 0 0 Z " fill="#F59F9F" transform="translate(690,667)"/>
<path d="M0 0 C0.33 0 0.66 0 1 0 C1.33 5.28 1.66 10.56 2 16 C1.67 16 1.34 16 1 16 C0.34 24.25 -0.32 32.5 -1 41 C-1.33 41 -1.66 41 -2 41 C-1.8588088 36.60400505 -1.71116992 32.20824787 -1.5625 27.8125 C-1.52318359 26.58595703 -1.48386719 25.35941406 -1.44335938 24.09570312 C-1.16711943 16.04224619 -0.68770173 8.02881221 0 0 Z " fill="#FDD6DA" transform="translate(112,215)"/>
<path d="M0 0 C1.62566606 0.47690204 3.25051311 0.95659666 4.875 1.4375 C5.77992188 1.70433594 6.68484375 1.97117187 7.6171875 2.24609375 C10 3 10 3 12 4 C12 4.66 12 5.32 12 6 C9.375 6.8125 9.375 6.8125 6 7 C3.52333222 5.60547986 2.02440584 4.07260598 0 2 C0 1.34 0 0.68 0 0 Z " fill="#F7ACAE" transform="translate(880,549)"/>
<path d="M0 0 C0.33 0 0.66 0 1 0 C1.77313045 5.9114744 2.14819277 11.1314592 1 17 C0.34 17 -0.32 17 -1 17 C-0.67 11.39 -0.34 5.78 0 0 Z " fill="#FBCFD3" transform="translate(713,806)"/>
<path d="M0 0 C1.13732426 3.40401948 0.83989957 5.77456664 0.0625 9.25 C-0.13214844 10.14203125 -0.32679688 11.0340625 -0.52734375 11.953125 C-0.68332031 12.62859375 -0.83929687 13.3040625 -1 14 C-1.33 14 -1.66 14 -2 14 C-2.84098656 9.98195309 -3.05404945 6.98196457 -2 3 C-1.34 3 -0.68 3 0 3 C0 2.01 0 1.02 0 0 Z " fill="#FCCED6" transform="translate(571,728)"/>
<path d="M0 0 C0.66 0.99 1.32 1.98 2 3 C1.34 3 0.68 3 0 3 C-0.12375 4.11375 -0.2475 5.2275 -0.375 6.375 C-1 10 -1 10 -3 12 C-2.49202991 7.6822542 -1.80317221 3.96697886 0 0 Z " fill="#F9BEC4" transform="translate(247,738)"/>
<path d="M0 0 C0.99 0 1.98 0 3 0 C4.32 2.31 5.64 4.62 7 7 C6.34 7.66 5.68 8.32 5 9 C3.35 6.03 1.7 3.06 0 0 Z " fill="#F9BDC0" transform="translate(146,585)"/>
<path d="M0 0 C0.66 0.99 1.32 1.98 2 3 C0.68 5.31 -0.64 7.62 -2 10 C-2.99 9.67 -3.98 9.34 -5 9 C-3.35 6.03 -1.7 3.06 0 0 Z " fill="#F8CACE" transform="translate(140,94)"/>
<path d="M0 0 C2.96404505 2.80804268 5.44499019 5.18315774 7 9 C3.26955235 7.75651745 2.20459674 6.19286425 0 3 C0 2.01 0 1.02 0 0 Z " fill="#F9BFC3" transform="translate(240,936)"/>
<path d="M0 0 C0.99 0 1.98 0 3 0 C3.33 2.64 3.66 5.28 4 8 C3.34 8 2.68 8 2 8 C0.74335022 5.09399739 0 3.20395416 0 0 Z " fill="#F7A8AA" transform="translate(693,676)"/>
<path d="M0 0 C1.32 0.33 2.64 0.66 4 1 C3.34 2.98 2.68 4.96 2 7 C1.34 7 0.68 7 0 7 C0 4.69 0 2.38 0 0 Z " fill="#F8BEC1" transform="translate(624,573)"/>
<path d="M0 0 C2.42945561 3.64418341 2.0828781 4.92923364 1.625 9.1875 C1.51414062 10.27417969 1.40328125 11.36085938 1.2890625 12.48046875 C1.19367188 13.31191406 1.09828125 14.14335937 1 15 C0.67 15 0.34 15 0 15 C-0.19601608 13.25093341 -0.38147403 11.50068154 -0.5625 9.75 C-0.66691406 8.77546875 -0.77132813 7.8009375 -0.87890625 6.796875 C-0.98974468 4.2368648 -0.77738092 2.41851841 0 0 Z " fill="#FAC0C4" transform="translate(1164,426)"/>
<path d="M0 0 C2.31 1.98 4.62 3.96 7 6 C6.01 6.33 5.02 6.66 4 7 C2 5.1875 2 5.1875 0 3 C0 2.01 0 1.02 0 0 Z " fill="#F7ABB0" transform="translate(155,596)"/>
<path d="M0 0 C6.625 -0.125 6.625 -0.125 10 1 C10 1.66 10 2.32 10 3 C3.375 2.25 3.375 2.25 0 0 Z " fill="#F7B6BE" transform="translate(240,90)"/>
<path d="M0 0 C4 1 4 1 6 3 C5.67 4.32 5.34 5.64 5 7 C3.35 4.69 1.7 2.38 0 0 Z " fill="#FAD1D4" transform="translate(295,1007)"/>
<path d="M0 0 C0 0.66 0 1.32 0 2 C-2.95664519 3.4783226 -5.74229737 3.06032783 -9 3 C-6.15236477 0.15236477 -3.96383452 0 0 0 Z " fill="#F8ADB1" transform="translate(298,587)"/>
</svg>
